# xmcd
#
# Track frame offsets: 
#        150
#        20486
#        37783
#        49649
#        65223
#        77804
#        92716
#        97664
#        108094
#        119117
#        132280
#        142829
#        151772
#        160736
#        173194
#        184518
#        199195
#        210615
#
# Disc length: 3111 seconds
#
# Revision: 3
# Processed by: cddbd v1.5.2PL0 Copyright (c) Steve Scherf et al.
# Submitted via: ExactAudioCopy v0.99pb5
#
DISCID=e50c2512
DTITLE=Memphis Slim - Worried Life Blues, CD 4
DYEAR=1900
DGENRE=Blues
TTITLE0=Bye bye will be on my way
TTITLE1=Letter home
TTITLE2=Memphis slim USA
TTITLE3=Born with the blues
TTITLE4=Rocking the house
TTITLE5=I wanna dance
TTITLE6=Coco boogie
TTITLE7=Fat cat
TTITLE8=Chunkin
TTITLE9=Lonely nights
TTITLE10=Walk on
TTITLE11=Pretending I'm happy
TTITLE12=The natural fact
TTITLE13=Blues universal
TTITLE14=She's gone for twelve hours
TTITLE15=My walking shoes
TTITLE16=When I'm gone
TTITLE17=T.W.A.
EXTD=
EXTT0=
EXTT1=
EXTT2=
EXTT3=
EXTT4=
EXTT5=
EXTT6=
EXTT7=
EXTT8=
EXTT9=
EXTT10=
EXTT11=
EXTT12=
EXTT13=
EXTT14=
EXTT15=
EXTT16=
EXTT17=
PLAYORDER=
